<svg aria-label="강릉역과 청주공항 후보 선별 단계 비교" data-result-chart="taxi-funnel" role="img" viewbox="0 0 1100 245" xmlns="http://www.w3.org/2000/svg"><text fill="#173e51" font-size="16" x="170" y="27">수요 관측</text><text fill="#173e51" font-size="16" x="390" y="27">최소 수요 3건</text><text fill="#173e51" font-size="16" x="610" y="27">비교 표본 4개</text><text fill="#173e51" font-size="16" x="830" y="27">수요·공급 조건</text><text fill="#173e51" font-size="19" x="0" y="89">강릉역</text><rect fill="#f0f6f4" height="64" rx="7" stroke="#397b65" width="185" x="145" y="50"></rect><text data-count="2783" data-site="강릉역" data-stage="0" fill="#397b65" font-size="25" text-anchor="middle" x="237" y="90">2,783건</text><text fill="#173e51" font-size="20" x="343" y="89">→</text><rect fill="#f0f6f4" height="64" rx="7" stroke="#397b65" width="185" x="365" y="50"></rect><text data-count="810" data-site="강릉역" data-stage="1" fill="#397b65" font-size="25" text-anchor="middle" x="457" y="90">810건</text><text fill="#173e51" font-size="20" x="563" y="89">→</text><rect fill="#f0f6f4" height="64" rx="7" stroke="#397b65" width="185" x="585" y="50"></rect><text data-count="810" data-site="강릉역" data-stage="2" fill="#397b65" font-size="25" text-anchor="middle" x="677" y="90">810건</text><text fill="#173e51" font-size="20" x="783" y="89">→</text><rect fill="#f0f6f4" height="64" rx="7" stroke="#397b65" width="185" x="805" y="50"></rect><text data-count="59" data-site="강릉역" data-stage="3" fill="#397b65" font-size="25" text-anchor="middle" x="897" y="90">59건</text><text fill="#173e51" font-size="19" x="0" y="176">청주공항</text><rect fill="#f0f6f4" height="64" rx="7" stroke="#ac543e" width="185" x="145" y="137"></rect><text data-count="810" data-site="청주공항" data-stage="0" fill="#ac543e" font-size="25" text-anchor="middle" x="237" y="177">810건</text><text fill="#173e51" font-size="20" x="343" y="176">→</text><rect fill="#f0f6f4" height="64" rx="7" stroke="#ac543e" width="185" x="365" y="137"></rect><text data-count="9" data-site="청주공항" data-stage="1" fill="#ac543e" font-size="25" text-anchor="middle" x="457" y="177">9건</text><text fill="#173e51" font-size="20" x="563" y="176">→</text><rect fill="#fff1ed" height="64" rx="7" stroke="#ac543e" width="185" x="585" y="137"></rect><text data-count="0" data-site="청주공항" data-stage="2" fill="#ac543e" font-size="25" text-anchor="middle" x="677" y="177">0건</text><text fill="#173e51" font-size="20" x="783" y="176">→</text><rect fill="#fff1ed" height="64" rx="7" stroke="#ac543e" width="185" x="805" y="137"></rect><text data-count="0" data-site="청주공항" data-stage="3" fill="#ac543e" font-size="25" text-anchor="middle" x="897" y="177">0건</text><text fill="#173e51" font-size="14" x="150" y="235">건 = 격자·날짜·승차시간 조합 수  |  최종 고유 격자: 강릉역 15개 · 청주공항 0개</text></svg>